<svg xmlns="http://www.w3.org/2000/svg" viewBox="0 0 64 64">
  <defs>
    <linearGradient id="body" x1="12" y1="12" x2="54" y2="54" gradientUnits="userSpaceOnUse">
      <stop stop-color="#dbeafe"/>
      <stop offset=".42" stop-color="#64748b"/>
      <stop offset="1" stop-color="#111827"/>
    </linearGradient>
    <linearGradient id="copper" x1="15" y1="48" x2="50" y2="14" gradientUnits="userSpaceOnUse">
      <stop stop-color="#7c2d12"/>
      <stop offset=".5" stop-color="#f97316"/>
      <stop offset="1" stop-color="#fed7aa"/>
    </linearGradient>
    <linearGradient id="zinc" x1="17" y1="15" x2="47" y2="50" gradientUnits="userSpaceOnUse">
      <stop stop-color="#f8fafc"/>
      <stop offset=".55" stop-color="#bae6fd"/>
      <stop offset="1" stop-color="#0891b2"/>
    </linearGradient>
    <filter id="glow" x="-30%" y="-30%" width="160%" height="160%">
      <feGaussianBlur stdDeviation="1.2" result="blur"/>
      <feMerge><feMergeNode in="blur"/><feMergeNode in="SourceGraphic"/></feMerge>
    </filter>
  </defs>
  <path d="M12 25 29 12l23 7 5 20-14 15-24-3L7 38z" fill="url(#body)" stroke="#7dd3fc" stroke-opacity=".36" stroke-width="2"/>
  <path d="M18 39 31 20l13 4-13 21z" fill="url(#copper)" stroke="#fed7aa" stroke-opacity=".55" stroke-width="1.4" filter="url(#glow)"/>
  <path d="M31 20 48 25 35 48 31 45 44 24z" fill="url(#zinc)" stroke="#e0f2fe" stroke-opacity=".55" stroke-width="1.4" filter="url(#glow)"/>
  <path d="M18 39h17M31 20v25M44 24l-9 24" fill="none" stroke="#f8fafc" stroke-opacity=".28" stroke-width="1.5" stroke-linecap="round"/>
  <path d="M16 27 29 16l18 5-5 4-18-1z" fill="#ffffff" opacity=".12"/>
</svg>
