<svg xmlns="http://www.w3.org/2000/svg" viewBox="0 0 64 64">
  <defs>
    <linearGradient id="armor" x1="10" y1="9" x2="54" y2="57" gradientUnits="userSpaceOnUse">
      <stop stop-color="#fef3c7"/>
      <stop offset=".45" stop-color="#ca8a04"/>
      <stop offset="1" stop-color="#3f2a05"/>
    </linearGradient>
    <linearGradient id="steel" x1="15" y1="53" x2="48" y2="14" gradientUnits="userSpaceOnUse">
      <stop stop-color="#475569"/>
      <stop offset=".55" stop-color="#cbd5e1"/>
      <stop offset="1" stop-color="#f8fafc"/>
    </linearGradient>
    <filter id="glow" x="-25%" y="-25%" width="150%" height="150%">
      <feGaussianBlur stdDeviation="1.1" result="blur"/>
      <feMerge><feMergeNode in="blur"/><feMergeNode in="SourceGraphic"/></feMerge>
    </filter>
  </defs>
  <path d="M32 7 52 15v18c0 12-8 20-20 25-12-5-20-13-20-25V15z" fill="url(#armor)" stroke="#fde68a" stroke-width="2"/>
  <path d="M32 14 45 20v13c0 8-5 13-13 17-8-4-13-9-13-17V20z" fill="#020617" opacity=".28"/>
  <path d="M32 15v35M20 25h24M20 35h24" fill="none" stroke="url(#steel)" stroke-width="3" stroke-linecap="round" filter="url(#glow)"/>
  <path d="M17 17 32 10l15 7-6 3-9-3-10 3z" fill="#ffffff" opacity=".18"/>
</svg>
