<svg xmlns="http://www.w3.org/2000/svg" viewBox="0 0 64 64">
  <defs>
    <radialGradient id="star" cx="32" cy="32" r="25" gradientUnits="userSpaceOnUse">
      <stop stop-color="#fefce8"/>
      <stop offset=".32" stop-color="#fde047"/>
      <stop offset=".68" stop-color="#22c55e"/>
      <stop offset="1" stop-color="#052e16"/>
    </radialGradient>
    <linearGradient id="ring" x1="12" y1="12" x2="52" y2="52" gradientUnits="userSpaceOnUse">
      <stop stop-color="#bbf7d0"/>
      <stop offset=".5" stop-color="#16a34a"/>
      <stop offset="1" stop-color="#052e16"/>
    </linearGradient>
    <filter id="glow" x="-40%" y="-40%" width="180%" height="180%">
      <feGaussianBlur stdDeviation="1.8" result="blur"/>
      <feMerge><feMergeNode in="blur"/><feMergeNode in="SourceGraphic"/></feMerge>
    </filter>
  </defs>
  <circle cx="32" cy="32" r="23" fill="#020617" stroke="url(#ring)" stroke-width="3"/>
  <path d="M32 7 38 24l18 8-18 8-6 17-6-17-18-8 18-8z" fill="url(#star)" stroke="#dcfce7" stroke-width="1.8" filter="url(#glow)"/>
  <circle cx="32" cy="32" r="8" fill="#fefce8" opacity=".9"/>
  <path d="M32 13v10M32 41v10M13 32h10M41 32h10M19 19l7 7M38 38l7 7M45 19l-7 7M26 38l-7 7" stroke="#bbf7d0" stroke-opacity=".65" stroke-width="2" stroke-linecap="round"/>
</svg>
