<svg xmlns="http://www.w3.org/2000/svg" width="128" height="128" viewBox="0 0 128 128">

  <defs>
    <linearGradient id="steel" x1="0" y1="0" x2="1" y2="1">
      <stop offset="0%" stop-color="#f6f2e8"/>
      <stop offset="20%" stop-color="#8e8980"/>
      <stop offset="50%" stop-color="#1e211f"/>
      <stop offset="72%" stop-color="#b9b4a8"/>
      <stop offset="100%" stop-color="#3f3d39"/>
    </linearGradient>
    <linearGradient id="steel2" x1="0" y1="0" x2="0" y2="1">
      <stop offset="0%" stop-color="#ffffff"/>
      <stop offset="24%" stop-color="#bfc4c6"/>
      <stop offset="48%" stop-color="#383b3d"/>
      <stop offset="75%" stop-color="#8f9698"/>
      <stop offset="100%" stop-color="#0c0d0f"/>
    </linearGradient>
    <linearGradient id="darkMetal" x1="0" y1="0" x2="1" y2="1">
      <stop offset="0%" stop-color="#343536"/>
      <stop offset="45%" stop-color="#070808"/>
      <stop offset="100%" stop-color="#5a5c5d"/>
    </linearGradient>
    <linearGradient id="blueCore" x1="0" y1="0" x2="1" y2="0">
      <stop offset="0%" stop-color="#002cc8"/>
      <stop offset="28%" stop-color="#02b7ff"/>
      <stop offset="50%" stop-color="#d7ffff"/>
      <stop offset="72%" stop-color="#0095ff"/>
      <stop offset="100%" stop-color="#001da7"/>
    </linearGradient>
    <radialGradient id="blueGlow" cx="50%" cy="50%" r="50%">
      <stop offset="0%" stop-color="#cbffff" stop-opacity=".95"/>
      <stop offset="45%" stop-color="#00aaff" stop-opacity=".55"/>
      <stop offset="100%" stop-color="#003bff" stop-opacity="0"/>
    </radialGradient>
    <linearGradient id="copper" x1="0" y1="0" x2="1" y2="1">
      <stop offset="0%" stop-color="#fff2c0"/>
      <stop offset="18%" stop-color="#ff9c42"/>
      <stop offset="48%" stop-color="#6e2100"/>
      <stop offset="76%" stop-color="#c45b00"/>
      <stop offset="100%" stop-color="#ffd16a"/>
    </linearGradient>
    <linearGradient id="gold" x1="0" y1="0" x2="1" y2="1">
      <stop offset="0%" stop-color="#fff7af"/>
      <stop offset="20%" stop-color="#ffbd20"/>
      <stop offset="44%" stop-color="#7a3d00"/>
      <stop offset="70%" stop-color="#e98a00"/>
      <stop offset="100%" stop-color="#fff06a"/>
    </linearGradient>
    <linearGradient id="redGem" x1="0" y1="0" x2="0" y2="1">
      <stop offset="0%" stop-color="#ff6b25"/>
      <stop offset="45%" stop-color="#a5120b"/>
      <stop offset="100%" stop-color="#430007"/>
    </linearGradient>
    <filter id="shadow" x="-30%" y="-30%" width="160%" height="160%">
      <feDropShadow dx="0" dy="3" stdDeviation="2" flood-color="#000000" flood-opacity=".75"/>
    </filter>
    <filter id="glow" x="-70%" y="-70%" width="240%" height="240%">
      <feGaussianBlur stdDeviation="3.2" result="blur"/>
      <feMerge><feMergeNode in="blur"/><feMergeNode in="SourceGraphic"/></feMerge>
    </filter>
  </defs>

  <g filter="url(#shadow)">
<polygon points="26.0,17.0 37.0,9.0 64.0,33.0 91.0,9.0 102.0,17.0 64.0,51.0" fill="url(#steel2)" stroke="#080808" stroke-width="2" stroke-linejoin="round" />
<polygon points="36.0,21.0 61.0,44.0 62.0,32.0 44.0,14.0" fill="url(#darkMetal)" stroke="#bbb" stroke-width="0.9" stroke-linejoin="round" />
<polygon points="92.0,21.0 67.0,44.0 66.0,32.0 84.0,14.0" fill="url(#darkMetal)" stroke="#bbb" stroke-width="0.9" stroke-linejoin="round" />
<path d="M 42.0 41.0 L 64.0 53.0 L 86.0 41.0" fill="none" stroke="#009dff" stroke-width="4" stroke-linejoin="round" stroke-linecap="round" filter="url(#glow)" opacity=".95"/>
<path d="M 48.0 39.0 L 64.0 47.0 L 80.0 39.0" fill="none" stroke="#eaffff" stroke-width="1.4" stroke-linejoin="round" stroke-linecap="round" opacity=".85"/>
<polygon points="26.0,33.0 37.0,25.0 64.0,49.0 91.0,25.0 102.0,33.0 64.0,67.0" fill="url(#steel2)" stroke="#080808" stroke-width="2" stroke-linejoin="round" />
<polygon points="36.0,37.0 61.0,60.0 62.0,48.0 44.0,30.0" fill="url(#darkMetal)" stroke="#bbb" stroke-width="0.9" stroke-linejoin="round" />
<polygon points="92.0,37.0 67.0,60.0 66.0,48.0 84.0,30.0" fill="url(#darkMetal)" stroke="#bbb" stroke-width="0.9" stroke-linejoin="round" />
<path d="M 42.0 57.0 L 64.0 69.0 L 86.0 57.0" fill="none" stroke="#009dff" stroke-width="4" stroke-linejoin="round" stroke-linecap="round" filter="url(#glow)" opacity=".95"/>
<path d="M 48.0 55.0 L 64.0 63.0 L 80.0 55.0" fill="none" stroke="#eaffff" stroke-width="1.4" stroke-linejoin="round" stroke-linecap="round" opacity=".85"/>
<polygon points="26.0,49.0 37.0,41.0 64.0,65.0 91.0,41.0 102.0,49.0 64.0,83.0" fill="url(#steel2)" stroke="#080808" stroke-width="2" stroke-linejoin="round" />
<polygon points="36.0,53.0 61.0,76.0 62.0,64.0 44.0,46.0" fill="url(#darkMetal)" stroke="#bbb" stroke-width="0.9" stroke-linejoin="round" />
<polygon points="92.0,53.0 67.0,76.0 66.0,64.0 84.0,46.0" fill="url(#darkMetal)" stroke="#bbb" stroke-width="0.9" stroke-linejoin="round" />
<path d="M 42.0 73.0 L 64.0 85.0 L 86.0 73.0" fill="none" stroke="#009dff" stroke-width="4" stroke-linejoin="round" stroke-linecap="round" filter="url(#glow)" opacity=".95"/>
<path d="M 48.0 71.0 L 64.0 79.0 L 80.0 71.0" fill="none" stroke="#eaffff" stroke-width="1.4" stroke-linejoin="round" stroke-linecap="round" opacity=".85"/>
<polygon points="26.0,65.0 37.0,57.0 64.0,81.0 91.0,57.0 102.0,65.0 64.0,99.0" fill="url(#steel2)" stroke="#080808" stroke-width="2" stroke-linejoin="round" />
<polygon points="36.0,69.0 61.0,92.0 62.0,80.0 44.0,62.0" fill="url(#darkMetal)" stroke="#bbb" stroke-width="0.9" stroke-linejoin="round" />
<polygon points="92.0,69.0 67.0,92.0 66.0,80.0 84.0,62.0" fill="url(#darkMetal)" stroke="#bbb" stroke-width="0.9" stroke-linejoin="round" />
<path d="M 42.0 89.0 L 64.0 101.0 L 86.0 89.0" fill="none" stroke="#009dff" stroke-width="4" stroke-linejoin="round" stroke-linecap="round" filter="url(#glow)" opacity=".95"/>
<path d="M 48.0 87.0 L 64.0 95.0 L 80.0 87.0" fill="none" stroke="#eaffff" stroke-width="1.4" stroke-linejoin="round" stroke-linecap="round" opacity=".85"/>

  </g>
</svg>
