<svg xmlns="http://www.w3.org/2000/svg" width="128" height="128" viewBox="0 0 128 128">

  <defs>
    <linearGradient id="steel" x1="0" y1="0" x2="1" y2="1">
      <stop offset="0%" stop-color="#f6f2e8"/>
      <stop offset="20%" stop-color="#8e8980"/>
      <stop offset="50%" stop-color="#1e211f"/>
      <stop offset="72%" stop-color="#b9b4a8"/>
      <stop offset="100%" stop-color="#3f3d39"/>
    </linearGradient>
    <linearGradient id="steel2" x1="0" y1="0" x2="0" y2="1">
      <stop offset="0%" stop-color="#ffffff"/>
      <stop offset="24%" stop-color="#bfc4c6"/>
      <stop offset="48%" stop-color="#383b3d"/>
      <stop offset="75%" stop-color="#8f9698"/>
      <stop offset="100%" stop-color="#0c0d0f"/>
    </linearGradient>
    <linearGradient id="darkMetal" x1="0" y1="0" x2="1" y2="1">
      <stop offset="0%" stop-color="#343536"/>
      <stop offset="45%" stop-color="#070808"/>
      <stop offset="100%" stop-color="#5a5c5d"/>
    </linearGradient>
    <linearGradient id="blueCore" x1="0" y1="0" x2="1" y2="0">
      <stop offset="0%" stop-color="#002cc8"/>
      <stop offset="28%" stop-color="#02b7ff"/>
      <stop offset="50%" stop-color="#d7ffff"/>
      <stop offset="72%" stop-color="#0095ff"/>
      <stop offset="100%" stop-color="#001da7"/>
    </linearGradient>
    <radialGradient id="blueGlow" cx="50%" cy="50%" r="50%">
      <stop offset="0%" stop-color="#cbffff" stop-opacity=".95"/>
      <stop offset="45%" stop-color="#00aaff" stop-opacity=".55"/>
      <stop offset="100%" stop-color="#003bff" stop-opacity="0"/>
    </radialGradient>
    <linearGradient id="copper" x1="0" y1="0" x2="1" y2="1">
      <stop offset="0%" stop-color="#fff2c0"/>
      <stop offset="18%" stop-color="#ff9c42"/>
      <stop offset="48%" stop-color="#6e2100"/>
      <stop offset="76%" stop-color="#c45b00"/>
      <stop offset="100%" stop-color="#ffd16a"/>
    </linearGradient>
    <linearGradient id="gold" x1="0" y1="0" x2="1" y2="1">
      <stop offset="0%" stop-color="#fff7af"/>
      <stop offset="20%" stop-color="#ffbd20"/>
      <stop offset="44%" stop-color="#7a3d00"/>
      <stop offset="70%" stop-color="#e98a00"/>
      <stop offset="100%" stop-color="#fff06a"/>
    </linearGradient>
    <linearGradient id="redGem" x1="0" y1="0" x2="0" y2="1">
      <stop offset="0%" stop-color="#ff6b25"/>
      <stop offset="45%" stop-color="#a5120b"/>
      <stop offset="100%" stop-color="#430007"/>
    </linearGradient>
    <filter id="shadow" x="-30%" y="-30%" width="160%" height="160%">
      <feDropShadow dx="0" dy="3" stdDeviation="2" flood-color="#000000" flood-opacity=".75"/>
    </filter>
    <filter id="glow" x="-70%" y="-70%" width="240%" height="240%">
      <feGaussianBlur stdDeviation="3.2" result="blur"/>
      <feMerge><feMergeNode in="blur"/><feMergeNode in="SourceGraphic"/></feMerge>
    </filter>
  </defs>

  <g filter="url(#shadow)">
<polygon points="64.0,24.0 81.5,35.0 81.5,93.0 64.0,104.0 46.5,93.0 46.5,35.0" fill="url(#gold)" stroke="#0b0800" stroke-width="2" stroke-linejoin="round" />
<polygon points="64.0,34.0 73.5,42.0 72.5,86.0 64.0,94.0 55.5,86.0 54.5,42.0" fill="url(#darkMetal)" stroke="#ffd766" stroke-width="1.1" stroke-linejoin="round" />
<ellipse cx="64" cy="64.0" rx="18" ry="40" fill="url(#blueGlow)" filter="url(#glow)" opacity=".75"/>
<polygon points="64.0,42.0 72.0,53.0 71.0,76.0 64.0,89.0 57.0,76.0 56.0,53.0" fill="url(#blueCore)" stroke="#0036b5" stroke-width="1.3" stroke-linejoin="round" />
<line x1="63" y1="49" x2="63" y2="79" stroke="#eaffff" stroke-width="1.1" opacity="0.75" stroke-linecap="round"/>
<polygon points="39.0,50.0 -1.0,42.0 -5.0,59.0 36.0,63.0" fill="url(#gold)" stroke="#0a0700" stroke-width="1.8" stroke-linejoin="round" />
<path d="M36.0 53.0 L-1.0 45.0" fill="none" stroke="#fff3a5" stroke-width="1.3" stroke-linejoin="round" stroke-linecap="round" opacity=".75"/>
<polygon points="89.0,50.0 129.0,42.0 133.0,59.0 92.0,63.0" fill="url(#gold)" stroke="#0a0700" stroke-width="1.8" stroke-linejoin="round" />
<path d="M92.0 53.0 L129.0 45.0" fill="none" stroke="#fff3a5" stroke-width="1.3" stroke-linejoin="round" stroke-linecap="round" opacity=".75"/>
<polygon points="39.0,63.0 -1.0,55.0 -5.0,72.0 36.0,76.0" fill="url(#gold)" stroke="#0a0700" stroke-width="1.8" stroke-linejoin="round" />
<path d="M36.0 66.0 L-1.0 58.0" fill="none" stroke="#fff3a5" stroke-width="1.3" stroke-linejoin="round" stroke-linecap="round" opacity=".75"/>
<polygon points="89.0,63.0 129.0,55.0 133.0,72.0 92.0,76.0" fill="url(#gold)" stroke="#0a0700" stroke-width="1.8" stroke-linejoin="round" />
<path d="M92.0 66.0 L129.0 58.0" fill="none" stroke="#fff3a5" stroke-width="1.3" stroke-linejoin="round" stroke-linecap="round" opacity=".75"/>
<polygon points="39.0,76.0 -1.0,68.0 -5.0,85.0 36.0,89.0" fill="url(#gold)" stroke="#0a0700" stroke-width="1.8" stroke-linejoin="round" />
<path d="M36.0 79.0 L-1.0 71.0" fill="none" stroke="#fff3a5" stroke-width="1.3" stroke-linejoin="round" stroke-linecap="round" opacity=".75"/>
<polygon points="89.0,76.0 129.0,68.0 133.0,85.0 92.0,89.0" fill="url(#gold)" stroke="#0a0700" stroke-width="1.8" stroke-linejoin="round" />
<path d="M92.0 79.0 L129.0 71.0" fill="none" stroke="#fff3a5" stroke-width="1.3" stroke-linejoin="round" stroke-linecap="round" opacity=".75"/>
<polygon points="39.0,89.0 -1.0,81.0 -5.0,98.0 36.0,102.0" fill="url(#gold)" stroke="#0a0700" stroke-width="1.8" stroke-linejoin="round" />
<path d="M36.0 92.0 L-1.0 84.0" fill="none" stroke="#fff3a5" stroke-width="1.3" stroke-linejoin="round" stroke-linecap="round" opacity=".75"/>
<polygon points="89.0,89.0 129.0,81.0 133.0,98.0 92.0,102.0" fill="url(#gold)" stroke="#0a0700" stroke-width="1.8" stroke-linejoin="round" />
<path d="M92.0 92.0 L129.0 84.0" fill="none" stroke="#fff3a5" stroke-width="1.3" stroke-linejoin="round" stroke-linecap="round" opacity=".75"/>

  </g>
</svg>
