<svg xmlns="http://www.w3.org/2000/svg" width="128" height="128" viewBox="0 0 128 128">

  <defs>
    <linearGradient id="steel" x1="0" y1="0" x2="1" y2="1">
      <stop offset="0%" stop-color="#f6f2e8"/>
      <stop offset="20%" stop-color="#8e8980"/>
      <stop offset="50%" stop-color="#1e211f"/>
      <stop offset="72%" stop-color="#b9b4a8"/>
      <stop offset="100%" stop-color="#3f3d39"/>
    </linearGradient>
    <linearGradient id="steel2" x1="0" y1="0" x2="0" y2="1">
      <stop offset="0%" stop-color="#ffffff"/>
      <stop offset="24%" stop-color="#bfc4c6"/>
      <stop offset="48%" stop-color="#383b3d"/>
      <stop offset="75%" stop-color="#8f9698"/>
      <stop offset="100%" stop-color="#0c0d0f"/>
    </linearGradient>
    <linearGradient id="darkMetal" x1="0" y1="0" x2="1" y2="1">
      <stop offset="0%" stop-color="#343536"/>
      <stop offset="45%" stop-color="#070808"/>
      <stop offset="100%" stop-color="#5a5c5d"/>
    </linearGradient>
    <linearGradient id="blueCore" x1="0" y1="0" x2="1" y2="0">
      <stop offset="0%" stop-color="#002cc8"/>
      <stop offset="28%" stop-color="#02b7ff"/>
      <stop offset="50%" stop-color="#d7ffff"/>
      <stop offset="72%" stop-color="#0095ff"/>
      <stop offset="100%" stop-color="#001da7"/>
    </linearGradient>
    <radialGradient id="blueGlow" cx="50%" cy="50%" r="50%">
      <stop offset="0%" stop-color="#cbffff" stop-opacity=".95"/>
      <stop offset="45%" stop-color="#00aaff" stop-opacity=".55"/>
      <stop offset="100%" stop-color="#003bff" stop-opacity="0"/>
    </radialGradient>
    <linearGradient id="copper" x1="0" y1="0" x2="1" y2="1">
      <stop offset="0%" stop-color="#fff2c0"/>
      <stop offset="18%" stop-color="#ff9c42"/>
      <stop offset="48%" stop-color="#6e2100"/>
      <stop offset="76%" stop-color="#c45b00"/>
      <stop offset="100%" stop-color="#ffd16a"/>
    </linearGradient>
    <linearGradient id="gold" x1="0" y1="0" x2="1" y2="1">
      <stop offset="0%" stop-color="#fff7af"/>
      <stop offset="20%" stop-color="#ffbd20"/>
      <stop offset="44%" stop-color="#7a3d00"/>
      <stop offset="70%" stop-color="#e98a00"/>
      <stop offset="100%" stop-color="#fff06a"/>
    </linearGradient>
    <linearGradient id="redGem" x1="0" y1="0" x2="0" y2="1">
      <stop offset="0%" stop-color="#ff6b25"/>
      <stop offset="45%" stop-color="#a5120b"/>
      <stop offset="100%" stop-color="#430007"/>
    </linearGradient>
    <filter id="shadow" x="-30%" y="-30%" width="160%" height="160%">
      <feDropShadow dx="0" dy="3" stdDeviation="2" flood-color="#000000" flood-opacity=".75"/>
    </filter>
    <filter id="glow" x="-70%" y="-70%" width="240%" height="240%">
      <feGaussianBlur stdDeviation="3.2" result="blur"/>
      <feMerge><feMergeNode in="blur"/><feMergeNode in="SourceGraphic"/></feMerge>
    </filter>
  </defs>

  <g filter="url(#shadow)">
<polygon points="64.0,11.0 66.4,16.8 72.6,17.2 67.8,21.2 69.3,27.3 64.0,24.0 58.7,27.3 60.2,21.2 55.4,17.2 61.6,16.8" fill="url(#gold)" stroke="#4a1d00" stroke-width="1.3" stroke-linejoin="round" />
<polygon points="45.4,59.0 14.4,51.0 8.4,67.0 40.4,73.0" fill="url(#gold)" stroke="#2b0d00" stroke-width="1.6" stroke-linejoin="round" />
<polygon points="40.4,62.0 16.4,55.0 12.4,63.0 38.4,69.0" fill="url(#redGem)" stroke="#ffd25e" stroke-width="0.8" stroke-linejoin="round" />
<polygon points="45.4,73.0 6.4,65.0 0.4,81.0 40.4,87.0" fill="url(#gold)" stroke="#2b0d00" stroke-width="1.6" stroke-linejoin="round" />
<polygon points="40.4,76.0 8.4,69.0 4.4,77.0 38.4,83.0" fill="url(#redGem)" stroke="#ffd25e" stroke-width="0.8" stroke-linejoin="round" />
<polygon points="82.6,59.0 113.6,51.0 119.6,67.0 87.6,73.0" fill="url(#gold)" stroke="#2b0d00" stroke-width="1.6" stroke-linejoin="round" />
<polygon points="87.6,62.0 111.6,55.0 115.6,63.0 89.6,69.0" fill="url(#redGem)" stroke="#ffd25e" stroke-width="0.8" stroke-linejoin="round" />
<polygon points="82.6,73.0 121.6,65.0 127.6,81.0 87.6,87.0" fill="url(#gold)" stroke="#2b0d00" stroke-width="1.6" stroke-linejoin="round" />
<polygon points="87.6,76.0 119.6,69.0 123.6,77.0 89.6,83.0" fill="url(#redGem)" stroke="#ffd25e" stroke-width="0.8" stroke-linejoin="round" />
<polygon points="64.0,52.7 85.6,64.8 80.6,89.2 64.0,101.3 47.4,89.2 42.4,64.8" fill="url(#gold)" stroke="#160a00" stroke-width="2" stroke-linejoin="round" />
<polygon points="64.0,60.7 76.6,67.8 72.6,85.2 64.0,91.3 55.4,85.2 51.4,67.8" fill="url(#redGem)" stroke="#ffcb44" stroke-width="1.2" stroke-linejoin="round" />
<polygon points="64.0,60.7 67.7,70.9 78.6,71.3 70.0,77.9 73.0,88.4 64.0,82.3 55.0,88.4 58.0,77.9 49.4,71.3 60.3,70.9" fill="url(#gold)" stroke="#4a1900" stroke-width="1.5" stroke-linejoin="round" />
<polygon points="64.0,68.8 65.8,73.5 70.8,73.8 66.9,76.9 68.2,81.8 64.0,79.1 59.8,81.8 61.1,76.9 57.2,73.8 62.2,73.5" fill="#fff0a8" stroke="#855000" stroke-width="0.8" stroke-linejoin="round" />
<polygon points="51.0,90.3 64.0,99.3 77.0,90.3 72.0,96.3 64.0,103.3 56.0,96.3" fill="url(#blueCore)" stroke="#001783" stroke-width="1" stroke-linejoin="round" />

  </g>
</svg>
