<svg xmlns="http://www.w3.org/2000/svg" width="128" height="128" viewBox="0 0 128 128">

  <defs>
    <linearGradient id="steel" x1="0" y1="0" x2="1" y2="1">
      <stop offset="0%" stop-color="#f6f2e8"/>
      <stop offset="20%" stop-color="#8e8980"/>
      <stop offset="50%" stop-color="#1e211f"/>
      <stop offset="72%" stop-color="#b9b4a8"/>
      <stop offset="100%" stop-color="#3f3d39"/>
    </linearGradient>
    <linearGradient id="steel2" x1="0" y1="0" x2="0" y2="1">
      <stop offset="0%" stop-color="#ffffff"/>
      <stop offset="24%" stop-color="#bfc4c6"/>
      <stop offset="48%" stop-color="#383b3d"/>
      <stop offset="75%" stop-color="#8f9698"/>
      <stop offset="100%" stop-color="#0c0d0f"/>
    </linearGradient>
    <linearGradient id="darkMetal" x1="0" y1="0" x2="1" y2="1">
      <stop offset="0%" stop-color="#343536"/>
      <stop offset="45%" stop-color="#070808"/>
      <stop offset="100%" stop-color="#5a5c5d"/>
    </linearGradient>
    <linearGradient id="blueCore" x1="0" y1="0" x2="1" y2="0">
      <stop offset="0%" stop-color="#002cc8"/>
      <stop offset="28%" stop-color="#02b7ff"/>
      <stop offset="50%" stop-color="#d7ffff"/>
      <stop offset="72%" stop-color="#0095ff"/>
      <stop offset="100%" stop-color="#001da7"/>
    </linearGradient>
    <radialGradient id="blueGlow" cx="50%" cy="50%" r="50%">
      <stop offset="0%" stop-color="#cbffff" stop-opacity=".95"/>
      <stop offset="45%" stop-color="#00aaff" stop-opacity=".55"/>
      <stop offset="100%" stop-color="#003bff" stop-opacity="0"/>
    </radialGradient>
    <linearGradient id="copper" x1="0" y1="0" x2="1" y2="1">
      <stop offset="0%" stop-color="#fff2c0"/>
      <stop offset="18%" stop-color="#ff9c42"/>
      <stop offset="48%" stop-color="#6e2100"/>
      <stop offset="76%" stop-color="#c45b00"/>
      <stop offset="100%" stop-color="#ffd16a"/>
    </linearGradient>
    <linearGradient id="gold" x1="0" y1="0" x2="1" y2="1">
      <stop offset="0%" stop-color="#fff7af"/>
      <stop offset="20%" stop-color="#ffbd20"/>
      <stop offset="44%" stop-color="#7a3d00"/>
      <stop offset="70%" stop-color="#e98a00"/>
      <stop offset="100%" stop-color="#fff06a"/>
    </linearGradient>
    <linearGradient id="redGem" x1="0" y1="0" x2="0" y2="1">
      <stop offset="0%" stop-color="#ff6b25"/>
      <stop offset="45%" stop-color="#a5120b"/>
      <stop offset="100%" stop-color="#430007"/>
    </linearGradient>
    <filter id="shadow" x="-30%" y="-30%" width="160%" height="160%">
      <feDropShadow dx="0" dy="3" stdDeviation="2" flood-color="#000000" flood-opacity=".75"/>
    </filter>
    <filter id="glow" x="-70%" y="-70%" width="240%" height="240%">
      <feGaussianBlur stdDeviation="3.2" result="blur"/>
      <feMerge><feMergeNode in="blur"/><feMergeNode in="SourceGraphic"/></feMerge>
    </filter>
  </defs>

  <g filter="url(#shadow)">
<polygon points="54.0,11.0 56.4,16.8 62.6,17.2 57.8,21.2 59.3,27.3 54.0,24.0 48.7,27.3 50.2,21.2 45.4,17.2 51.6,16.8" fill="url(#gold)" stroke="#4a1d00" stroke-width="1.3" stroke-linejoin="round" />
<polygon points="74.0,11.0 76.4,16.8 82.6,17.2 77.8,21.2 79.3,27.3 74.0,24.0 68.7,27.3 70.2,21.2 65.4,17.2 71.6,16.8" fill="url(#gold)" stroke="#4a1d00" stroke-width="1.3" stroke-linejoin="round" />
<polygon points="44.9,59.0 13.9,51.0 7.9,67.0 39.9,73.0" fill="url(#gold)" stroke="#2b0d00" stroke-width="1.6" stroke-linejoin="round" />
<polygon points="39.9,62.0 15.9,55.0 11.9,63.0 37.9,69.0" fill="url(#redGem)" stroke="#ffd25e" stroke-width="0.8" stroke-linejoin="round" />
<polygon points="44.9,73.0 5.9,65.0 -0.1,81.0 39.9,87.0" fill="url(#gold)" stroke="#2b0d00" stroke-width="1.6" stroke-linejoin="round" />
<polygon points="39.9,76.0 7.9,69.0 3.9,77.0 37.9,83.0" fill="url(#redGem)" stroke="#ffd25e" stroke-width="0.8" stroke-linejoin="round" />
<polygon points="83.1,59.0 114.1,51.0 120.1,67.0 88.1,73.0" fill="url(#gold)" stroke="#2b0d00" stroke-width="1.6" stroke-linejoin="round" />
<polygon points="88.1,62.0 112.1,55.0 116.1,63.0 90.1,69.0" fill="url(#redGem)" stroke="#ffd25e" stroke-width="0.8" stroke-linejoin="round" />
<polygon points="83.1,73.0 122.1,65.0 128.1,81.0 88.1,87.0" fill="url(#gold)" stroke="#2b0d00" stroke-width="1.6" stroke-linejoin="round" />
<polygon points="88.1,76.0 120.1,69.0 124.1,77.0 90.1,83.0" fill="url(#redGem)" stroke="#ffd25e" stroke-width="0.8" stroke-linejoin="round" />
<polygon points="64.0,52.2 86.1,64.6 81.1,89.4 64.0,101.8 46.9,89.4 41.9,64.6" fill="url(#gold)" stroke="#160a00" stroke-width="2" stroke-linejoin="round" />
<polygon points="64.0,60.2 77.1,67.6 73.1,85.4 64.0,91.8 54.9,85.4 50.9,67.6" fill="url(#redGem)" stroke="#ffcb44" stroke-width="1.2" stroke-linejoin="round" />
<polygon points="64.0,60.4 67.8,70.8 78.9,71.2 70.1,78.0 73.2,88.7 64.0,82.4 54.8,88.7 57.9,78.0 49.1,71.2 60.2,70.8" fill="url(#gold)" stroke="#4a1900" stroke-width="1.5" stroke-linejoin="round" />
<polygon points="64.0,68.6 65.8,73.5 71.0,73.7 67.0,77.0 68.3,82.0 64.0,79.1 59.7,82.0 61.0,77.0 57.0,73.7 62.2,73.5" fill="#fff0a8" stroke="#855000" stroke-width="0.8" stroke-linejoin="round" />
<polygon points="51.0,90.8 64.0,99.8 77.0,90.8 72.0,96.8 64.0,103.8 56.0,96.8" fill="url(#blueCore)" stroke="#001783" stroke-width="1" stroke-linejoin="round" />

  </g>
</svg>
