<svg xmlns="http://www.w3.org/2000/svg" width="128" height="128" viewBox="0 0 128 128">

  <defs>
    <linearGradient id="steel" x1="0" y1="0" x2="1" y2="1">
      <stop offset="0%" stop-color="#f6f2e8"/>
      <stop offset="20%" stop-color="#8e8980"/>
      <stop offset="50%" stop-color="#1e211f"/>
      <stop offset="72%" stop-color="#b9b4a8"/>
      <stop offset="100%" stop-color="#3f3d39"/>
    </linearGradient>
    <linearGradient id="steel2" x1="0" y1="0" x2="0" y2="1">
      <stop offset="0%" stop-color="#ffffff"/>
      <stop offset="24%" stop-color="#bfc4c6"/>
      <stop offset="48%" stop-color="#383b3d"/>
      <stop offset="75%" stop-color="#8f9698"/>
      <stop offset="100%" stop-color="#0c0d0f"/>
    </linearGradient>
    <linearGradient id="darkMetal" x1="0" y1="0" x2="1" y2="1">
      <stop offset="0%" stop-color="#343536"/>
      <stop offset="45%" stop-color="#070808"/>
      <stop offset="100%" stop-color="#5a5c5d"/>
    </linearGradient>
    <linearGradient id="blueCore" x1="0" y1="0" x2="1" y2="0">
      <stop offset="0%" stop-color="#002cc8"/>
      <stop offset="28%" stop-color="#02b7ff"/>
      <stop offset="50%" stop-color="#d7ffff"/>
      <stop offset="72%" stop-color="#0095ff"/>
      <stop offset="100%" stop-color="#001da7"/>
    </linearGradient>
    <radialGradient id="blueGlow" cx="50%" cy="50%" r="50%">
      <stop offset="0%" stop-color="#cbffff" stop-opacity=".95"/>
      <stop offset="45%" stop-color="#00aaff" stop-opacity=".55"/>
      <stop offset="100%" stop-color="#003bff" stop-opacity="0"/>
    </radialGradient>
    <linearGradient id="copper" x1="0" y1="0" x2="1" y2="1">
      <stop offset="0%" stop-color="#fff2c0"/>
      <stop offset="18%" stop-color="#ff9c42"/>
      <stop offset="48%" stop-color="#6e2100"/>
      <stop offset="76%" stop-color="#c45b00"/>
      <stop offset="100%" stop-color="#ffd16a"/>
    </linearGradient>
    <linearGradient id="gold" x1="0" y1="0" x2="1" y2="1">
      <stop offset="0%" stop-color="#fff7af"/>
      <stop offset="20%" stop-color="#ffbd20"/>
      <stop offset="44%" stop-color="#7a3d00"/>
      <stop offset="70%" stop-color="#e98a00"/>
      <stop offset="100%" stop-color="#fff06a"/>
    </linearGradient>
    <linearGradient id="redGem" x1="0" y1="0" x2="0" y2="1">
      <stop offset="0%" stop-color="#ff6b25"/>
      <stop offset="45%" stop-color="#a5120b"/>
      <stop offset="100%" stop-color="#430007"/>
    </linearGradient>
    <filter id="shadow" x="-30%" y="-30%" width="160%" height="160%">
      <feDropShadow dx="0" dy="3" stdDeviation="2" flood-color="#000000" flood-opacity=".75"/>
    </filter>
    <filter id="glow" x="-70%" y="-70%" width="240%" height="240%">
      <feGaussianBlur stdDeviation="3.2" result="blur"/>
      <feMerge><feMergeNode in="blur"/><feMergeNode in="SourceGraphic"/></feMerge>
    </filter>
  </defs>

  <g filter="url(#shadow)">
<polygon points="44.0,11.0 46.4,16.8 52.6,17.2 47.8,21.2 49.3,27.3 44.0,24.0 38.7,27.3 40.2,21.2 35.4,17.2 41.6,16.8" fill="url(#gold)" stroke="#4a1d00" stroke-width="1.3" stroke-linejoin="round" />
<polygon points="64.0,11.0 66.4,16.8 72.6,17.2 67.8,21.2 69.3,27.3 64.0,24.0 58.7,27.3 60.2,21.2 55.4,17.2 61.6,16.8" fill="url(#gold)" stroke="#4a1d00" stroke-width="1.3" stroke-linejoin="round" />
<polygon points="84.0,11.0 86.4,16.8 92.6,17.2 87.8,21.2 89.3,27.3 84.0,24.0 78.7,27.3 80.2,21.2 75.4,17.2 81.6,16.8" fill="url(#gold)" stroke="#4a1d00" stroke-width="1.3" stroke-linejoin="round" />
<polygon points="44.4,59.0 13.4,51.0 7.4,67.0 39.4,73.0" fill="url(#gold)" stroke="#2b0d00" stroke-width="1.6" stroke-linejoin="round" />
<polygon points="39.4,62.0 15.4,55.0 11.4,63.0 37.4,69.0" fill="url(#redGem)" stroke="#ffd25e" stroke-width="0.8" stroke-linejoin="round" />
<polygon points="44.4,73.0 5.4,65.0 -0.6,81.0 39.4,87.0" fill="url(#gold)" stroke="#2b0d00" stroke-width="1.6" stroke-linejoin="round" />
<polygon points="39.4,76.0 7.4,69.0 3.4,77.0 37.4,83.0" fill="url(#redGem)" stroke="#ffd25e" stroke-width="0.8" stroke-linejoin="round" />
<polygon points="83.6,59.0 114.6,51.0 120.6,67.0 88.6,73.0" fill="url(#gold)" stroke="#2b0d00" stroke-width="1.6" stroke-linejoin="round" />
<polygon points="88.6,62.0 112.6,55.0 116.6,63.0 90.6,69.0" fill="url(#redGem)" stroke="#ffd25e" stroke-width="0.8" stroke-linejoin="round" />
<polygon points="83.6,73.0 122.6,65.0 128.6,81.0 88.6,87.0" fill="url(#gold)" stroke="#2b0d00" stroke-width="1.6" stroke-linejoin="round" />
<polygon points="88.6,76.0 120.6,69.0 124.6,77.0 90.6,83.0" fill="url(#redGem)" stroke="#ffd25e" stroke-width="0.8" stroke-linejoin="round" />
<polygon points="64.0,51.6 86.6,64.3 81.6,89.7 64.0,102.4 46.4,89.7 41.4,64.3" fill="url(#gold)" stroke="#160a00" stroke-width="2" stroke-linejoin="round" />
<polygon points="64.0,59.6 77.6,67.3 73.6,85.7 64.0,92.4 54.4,85.7 50.4,67.3" fill="url(#redGem)" stroke="#ffcb44" stroke-width="1.2" stroke-linejoin="round" />
<polygon points="64.0,60.0 67.9,70.7 79.2,71.1 70.3,78.0 73.4,88.9 64.0,82.6 54.6,88.9 57.7,78.0 48.8,71.1 60.1,70.7" fill="url(#gold)" stroke="#4a1900" stroke-width="1.5" stroke-linejoin="round" />
<polygon points="64.0,68.5 65.9,73.4 71.2,73.7 67.0,77.0 68.4,82.1 64.0,79.2 59.6,82.1 61.0,77.0 56.8,73.7 62.1,73.4" fill="#fff0a8" stroke="#855000" stroke-width="0.8" stroke-linejoin="round" />
<polygon points="51.0,91.4 64.0,100.4 77.0,91.4 72.0,97.4 64.0,104.4 56.0,97.4" fill="url(#blueCore)" stroke="#001783" stroke-width="1" stroke-linejoin="round" />
<ellipse cx="44.3" cy="118.1" rx="2.9" ry="6.5" fill="url(#gold)" stroke="#4b2200" stroke-width=".8" transform="rotate(188.0 44.3 118.1)"/>
<ellipse cx="38.7" cy="114.5" rx="2.9" ry="6.5" fill="url(#gold)" stroke="#4b2200" stroke-width=".8" transform="rotate(197.0 38.7 114.5)"/>
<ellipse cx="33.8" cy="110.2" rx="2.9" ry="6.5" fill="url(#gold)" stroke="#4b2200" stroke-width=".8" transform="rotate(206.0 33.8 110.2)"/>
<ellipse cx="29.6" cy="105.1" rx="2.9" ry="6.5" fill="url(#gold)" stroke="#4b2200" stroke-width=".8" transform="rotate(215.0 29.6 105.1)"/>
<ellipse cx="83.7" cy="118.1" rx="2.9" ry="6.5" fill="url(#gold)" stroke="#4b2200" stroke-width=".8" transform="rotate(-8.0 83.7 118.1)"/>
<ellipse cx="89.3" cy="114.5" rx="2.9" ry="6.5" fill="url(#gold)" stroke="#4b2200" stroke-width=".8" transform="rotate(-17.0 89.3 114.5)"/>
<ellipse cx="94.2" cy="110.2" rx="2.9" ry="6.5" fill="url(#gold)" stroke="#4b2200" stroke-width=".8" transform="rotate(-26.0 94.2 110.2)"/>
<ellipse cx="98.4" cy="105.1" rx="2.9" ry="6.5" fill="url(#gold)" stroke="#4b2200" stroke-width=".8" transform="rotate(-35.0 98.4 105.1)"/>
<polygon points="64.0,110.0 71.0,118.0 64.0,124.0 57.0,118.0" fill="url(#redGem)" stroke="#ffcf55" stroke-width="1" stroke-linejoin="round" />

  </g>
</svg>
