<svg xmlns="http://www.w3.org/2000/svg" width="128" height="128" viewBox="0 0 128 128">

  <defs>
    <linearGradient id="steel" x1="0" y1="0" x2="1" y2="1">
      <stop offset="0%" stop-color="#f6f2e8"/>
      <stop offset="20%" stop-color="#8e8980"/>
      <stop offset="50%" stop-color="#1e211f"/>
      <stop offset="72%" stop-color="#b9b4a8"/>
      <stop offset="100%" stop-color="#3f3d39"/>
    </linearGradient>
    <linearGradient id="steel2" x1="0" y1="0" x2="0" y2="1">
      <stop offset="0%" stop-color="#ffffff"/>
      <stop offset="24%" stop-color="#bfc4c6"/>
      <stop offset="48%" stop-color="#383b3d"/>
      <stop offset="75%" stop-color="#8f9698"/>
      <stop offset="100%" stop-color="#0c0d0f"/>
    </linearGradient>
    <linearGradient id="darkMetal" x1="0" y1="0" x2="1" y2="1">
      <stop offset="0%" stop-color="#343536"/>
      <stop offset="45%" stop-color="#070808"/>
      <stop offset="100%" stop-color="#5a5c5d"/>
    </linearGradient>
    <linearGradient id="blueCore" x1="0" y1="0" x2="1" y2="0">
      <stop offset="0%" stop-color="#002cc8"/>
      <stop offset="28%" stop-color="#02b7ff"/>
      <stop offset="50%" stop-color="#d7ffff"/>
      <stop offset="72%" stop-color="#0095ff"/>
      <stop offset="100%" stop-color="#001da7"/>
    </linearGradient>
    <radialGradient id="blueGlow" cx="50%" cy="50%" r="50%">
      <stop offset="0%" stop-color="#cbffff" stop-opacity=".95"/>
      <stop offset="45%" stop-color="#00aaff" stop-opacity=".55"/>
      <stop offset="100%" stop-color="#003bff" stop-opacity="0"/>
    </radialGradient>
    <linearGradient id="copper" x1="0" y1="0" x2="1" y2="1">
      <stop offset="0%" stop-color="#fff2c0"/>
      <stop offset="18%" stop-color="#ff9c42"/>
      <stop offset="48%" stop-color="#6e2100"/>
      <stop offset="76%" stop-color="#c45b00"/>
      <stop offset="100%" stop-color="#ffd16a"/>
    </linearGradient>
    <linearGradient id="gold" x1="0" y1="0" x2="1" y2="1">
      <stop offset="0%" stop-color="#fff7af"/>
      <stop offset="20%" stop-color="#ffbd20"/>
      <stop offset="44%" stop-color="#7a3d00"/>
      <stop offset="70%" stop-color="#e98a00"/>
      <stop offset="100%" stop-color="#fff06a"/>
    </linearGradient>
    <linearGradient id="redGem" x1="0" y1="0" x2="0" y2="1">
      <stop offset="0%" stop-color="#ff6b25"/>
      <stop offset="45%" stop-color="#a5120b"/>
      <stop offset="100%" stop-color="#430007"/>
    </linearGradient>
    <filter id="shadow" x="-30%" y="-30%" width="160%" height="160%">
      <feDropShadow dx="0" dy="3" stdDeviation="2" flood-color="#000000" flood-opacity=".75"/>
    </filter>
    <filter id="glow" x="-70%" y="-70%" width="240%" height="240%">
      <feGaussianBlur stdDeviation="3.2" result="blur"/>
      <feMerge><feMergeNode in="blur"/><feMergeNode in="SourceGraphic"/></feMerge>
    </filter>
  </defs>

  <g filter="url(#shadow)">
<polygon points="34.0,11.0 36.4,16.8 42.6,17.2 37.8,21.2 39.3,27.3 34.0,24.0 28.7,27.3 30.2,21.2 25.4,17.2 31.6,16.8" fill="url(#gold)" stroke="#4a1d00" stroke-width="1.3" stroke-linejoin="round" />
<polygon points="54.0,11.0 56.4,16.8 62.6,17.2 57.8,21.2 59.3,27.3 54.0,24.0 48.7,27.3 50.2,21.2 45.4,17.2 51.6,16.8" fill="url(#gold)" stroke="#4a1d00" stroke-width="1.3" stroke-linejoin="round" />
<polygon points="74.0,11.0 76.4,16.8 82.6,17.2 77.8,21.2 79.3,27.3 74.0,24.0 68.7,27.3 70.2,21.2 65.4,17.2 71.6,16.8" fill="url(#gold)" stroke="#4a1d00" stroke-width="1.3" stroke-linejoin="round" />
<polygon points="94.0,11.0 96.4,16.8 102.6,17.2 97.8,21.2 99.3,27.3 94.0,24.0 88.7,27.3 90.2,21.2 85.4,17.2 91.6,16.8" fill="url(#gold)" stroke="#4a1d00" stroke-width="1.3" stroke-linejoin="round" />
<polygon points="44.0,59.0 13.0,51.0 7.0,67.0 39.0,73.0" fill="url(#gold)" stroke="#2b0d00" stroke-width="1.6" stroke-linejoin="round" />
<polygon points="39.0,62.0 15.0,55.0 11.0,63.0 37.0,69.0" fill="url(#redGem)" stroke="#ffd25e" stroke-width="0.8" stroke-linejoin="round" />
<polygon points="44.0,73.0 5.0,65.0 -1.0,81.0 39.0,87.0" fill="url(#gold)" stroke="#2b0d00" stroke-width="1.6" stroke-linejoin="round" />
<polygon points="39.0,76.0 7.0,69.0 3.0,77.0 37.0,83.0" fill="url(#redGem)" stroke="#ffd25e" stroke-width="0.8" stroke-linejoin="round" />
<polygon points="84.0,59.0 115.0,51.0 121.0,67.0 89.0,73.0" fill="url(#gold)" stroke="#2b0d00" stroke-width="1.6" stroke-linejoin="round" />
<polygon points="89.0,62.0 113.0,55.0 117.0,63.0 91.0,69.0" fill="url(#redGem)" stroke="#ffd25e" stroke-width="0.8" stroke-linejoin="round" />
<polygon points="84.0,73.0 123.0,65.0 129.0,81.0 89.0,87.0" fill="url(#gold)" stroke="#2b0d00" stroke-width="1.6" stroke-linejoin="round" />
<polygon points="89.0,76.0 121.0,69.0 125.0,77.0 91.0,83.0" fill="url(#redGem)" stroke="#ffd25e" stroke-width="0.8" stroke-linejoin="round" />
<polygon points="64.0,51.1 87.0,64.0 82.0,90.0 64.0,102.9 46.0,90.0 41.0,64.0" fill="url(#gold)" stroke="#160a00" stroke-width="2" stroke-linejoin="round" />
<polygon points="64.0,59.1 78.0,67.0 74.0,86.0 64.0,92.9 54.0,86.0 50.0,67.0" fill="url(#redGem)" stroke="#ffcb44" stroke-width="1.2" stroke-linejoin="round" />
<polygon points="64.0,59.7 67.9,70.6 79.5,71.0 70.4,78.1 73.6,89.2 64.0,82.7 54.4,89.2 57.6,78.1 48.5,71.0 60.1,70.6" fill="url(#gold)" stroke="#4a1900" stroke-width="1.5" stroke-linejoin="round" />
<polygon points="64.0,68.3 65.9,73.4 71.3,73.6 67.1,77.0 68.5,82.2 64.0,79.3 59.5,82.2 60.9,77.0 56.7,73.6 62.1,73.4" fill="#fff0a8" stroke="#855000" stroke-width="0.8" stroke-linejoin="round" />
<polygon points="51.0,91.9 64.0,100.9 77.0,91.9 72.0,97.9 64.0,104.9 56.0,97.9" fill="url(#blueCore)" stroke="#001783" stroke-width="1" stroke-linejoin="round" />
<ellipse cx="42.4" cy="121.6" rx="3.2" ry="6.9" fill="url(#gold)" stroke="#4b2200" stroke-width=".8" transform="rotate(188.0 42.4 121.6)"/>
<ellipse cx="36.3" cy="117.7" rx="3.2" ry="6.9" fill="url(#gold)" stroke="#4b2200" stroke-width=".8" transform="rotate(197.0 36.3 117.7)"/>
<ellipse cx="30.9" cy="113.0" rx="3.2" ry="6.9" fill="url(#gold)" stroke="#4b2200" stroke-width=".8" transform="rotate(206.0 30.9 113.0)"/>
<ellipse cx="26.3" cy="107.4" rx="3.2" ry="6.9" fill="url(#gold)" stroke="#4b2200" stroke-width=".8" transform="rotate(215.0 26.3 107.4)"/>
<ellipse cx="22.7" cy="101.2" rx="3.2" ry="6.9" fill="url(#gold)" stroke="#4b2200" stroke-width=".8" transform="rotate(224.0 22.7 101.2)"/>
<ellipse cx="20.0" cy="94.4" rx="3.2" ry="6.9" fill="url(#gold)" stroke="#4b2200" stroke-width=".8" transform="rotate(233.0 20.0 94.4)"/>
<ellipse cx="18.4" cy="87.4" rx="3.2" ry="6.9" fill="url(#gold)" stroke="#4b2200" stroke-width=".8" transform="rotate(242.0 18.4 87.4)"/>
<ellipse cx="18.0" cy="80.2" rx="3.2" ry="6.9" fill="url(#gold)" stroke="#4b2200" stroke-width=".8" transform="rotate(251.0 18.0 80.2)"/>
<ellipse cx="85.6" cy="121.6" rx="3.2" ry="6.9" fill="url(#gold)" stroke="#4b2200" stroke-width=".8" transform="rotate(-8.0 85.6 121.6)"/>
<ellipse cx="91.7" cy="117.7" rx="3.2" ry="6.9" fill="url(#gold)" stroke="#4b2200" stroke-width=".8" transform="rotate(-17.0 91.7 117.7)"/>
<ellipse cx="97.1" cy="113.0" rx="3.2" ry="6.9" fill="url(#gold)" stroke="#4b2200" stroke-width=".8" transform="rotate(-26.0 97.1 113.0)"/>
<ellipse cx="101.7" cy="107.4" rx="3.2" ry="6.9" fill="url(#gold)" stroke="#4b2200" stroke-width=".8" transform="rotate(-35.0 101.7 107.4)"/>
<ellipse cx="105.3" cy="101.2" rx="3.2" ry="6.9" fill="url(#gold)" stroke="#4b2200" stroke-width=".8" transform="rotate(-44.0 105.3 101.2)"/>
<ellipse cx="108.0" cy="94.4" rx="3.2" ry="6.9" fill="url(#gold)" stroke="#4b2200" stroke-width=".8" transform="rotate(-53.0 108.0 94.4)"/>
<ellipse cx="109.6" cy="87.4" rx="3.2" ry="6.9" fill="url(#gold)" stroke="#4b2200" stroke-width=".8" transform="rotate(-62.0 109.6 87.4)"/>
<ellipse cx="110.0" cy="80.2" rx="3.2" ry="6.9" fill="url(#gold)" stroke="#4b2200" stroke-width=".8" transform="rotate(-71.0 110.0 80.2)"/>
<polygon points="64.0,110.0 71.0,118.0 64.0,124.0 57.0,118.0" fill="url(#redGem)" stroke="#ffcf55" stroke-width="1" stroke-linejoin="round" />

  </g>
</svg>
