<svg xmlns="http://www.w3.org/2000/svg" viewBox="0 0 128 128" role="img" aria-labelledby="title desc">
  <title id="title">Pistou Portgun</title>
  <desc id="desc">Pistolet de teleportation sci-fi avec coeur de portail vert</desc>
  <defs>
    <linearGradient id="metal" x1="20" x2="104" y1="30" y2="96" gradientUnits="userSpaceOnUse">
      <stop offset="0" stop-color="#d7f8ff"/>
      <stop offset=".25" stop-color="#5e8798"/>
      <stop offset=".55" stop-color="#1e3440"/>
      <stop offset="1" stop-color="#07141d"/>
    </linearGradient>
    <linearGradient id="grip" x1="54" x2="82" y1="71" y2="119" gradientUnits="userSpaceOnUse">
      <stop offset="0" stop-color="#203847"/>
      <stop offset="1" stop-color="#020910"/>
    </linearGradient>
    <radialGradient id="portalGlow" cx="50%" cy="50%" r="58%">
      <stop offset="0" stop-color="#f4fff6"/>
      <stop offset=".35" stop-color="#80ffad"/>
      <stop offset=".72" stop-color="#12d978"/>
      <stop offset="1" stop-color="#065f46"/>
    </radialGradient>
    <filter id="softGlow" x="-35%" y="-35%" width="170%" height="170%">
      <feGaussianBlur stdDeviation="2.4" result="blur"/>
      <feMerge>
        <feMergeNode in="blur"/>
        <feMergeNode in="SourceGraphic"/>
      </feMerge>
    </filter>
  </defs>
  <path d="M18 50c2-9 10-15 22-15h37c10 0 17 5 23 13l12 1c4 0 8 3 8 7v7c0 4-3 7-7 7H91c-5 6-12 9-21 9H36c-12 0-20-6-22-15l-5-1v-12l9-1Z" fill="#06121a" opacity=".88"/>
  <path d="M19 45c3-10 11-16 23-16h36c8 0 16 4 22 12l13 1c4 0 7 3 7 7v8c0 4-3 7-7 7H91c-5 6-12 9-21 9H36c-12 0-20-6-23-15l-8-1V46l14-1Z" fill="url(#metal)" stroke="#7df9ff" stroke-width="1.4"/>
  <path d="M100 42h13c3 0 5 2 5 5v12c0 3-2 5-5 5H99c4-8 4-15 1-22Z" fill="#071923" stroke="#28e4ff" stroke-width="1"/>
  <path d="M14 48h20c4 0 7 3 7 7s-3 7-7 7H14V48Z" fill="#0d2734" stroke="#34d4ff" stroke-width="1"/>
  <path d="M37 34h29c8 0 14 3 18 9l6 9-8 10c-4 5-10 7-17 7H36c8-8 8-27 1-35Z" fill="#132d38" stroke="#8edfff" stroke-width="1.2"/>
  <circle cx="70" cy="52" r="16" fill="#03130c" stroke="#02120b" stroke-width="4"/>
  <circle cx="70" cy="52" r="13" fill="url(#portalGlow)" filter="url(#softGlow)"/>
  <path d="M58 51c8-7 18-7 24 0-9-3-17-1-24 0Zm5 8c5 5 13 4 19-2-7 2-13 3-19 2Z" fill="#eafff2" opacity=".72"/>
  <path d="M44 67h29l16 43c1 4-1 8-5 9l-14 4c-4 1-8-1-9-5L47 80c-3-1-5-4-5-7 0-2 1-4 2-6Z" fill="#061017" stroke="#5eead4" stroke-width="1.3"/>
  <path d="M53 73h21l13 35c1 2 0 4-2 5l-11 3c-2 1-4 0-5-2L56 78c-2 0-3-2-3-5Z" fill="url(#grip)"/>
  <path d="M60 82h20M63 91h20M66 100h20" stroke="#4de7d3" stroke-width="2" opacity=".55"/>
  <path d="M29 40h15m-15 23h17M90 48h18M92 58h14" stroke="#b7f8ff" stroke-width="2" stroke-linecap="round" opacity=".72"/>
  <circle cx="36" cy="54" r="3" fill="#ffd166"/>
  <circle cx="95" cy="53" r="3" fill="#80ffad" filter="url(#softGlow)"/>
</svg>
