<svg xmlns="http://www.w3.org/2000/svg" viewBox="0 0 280 180">
<defs>
  <linearGradient id="g3" x1="0" x2="1"><stop offset="0" stop-color="#8b5cf6"/><stop offset="1" stop-color="#c084fc"/></linearGradient>
  <radialGradient id="c3" cx="50%" cy="50%" r="60%"><stop offset="0" stop-color="#c4b5fd"/><stop offset="1" stop-color="#1e1b4b"/></radialGradient>
  <filter id="glow3"><feGaussianBlur stdDeviation="5" result="b"/><feMerge><feMergeNode in="b"/><feMergeNode in="SourceGraphic"/></feMerge></filter>
</defs>
<g transform="translate(140 88)" filter="url(#glow3)">
  <path d="M0 -46 C28 -18 64 -12 92 6 C56 16 30 28 8 52 C0 58 0 58 -8 52 C-30 28 -56 16 -92 6 C-64 -12 -28 -18 0 -46 Z" fill="url(#g3)" fill-opacity="0.18" stroke="#a78bfa" stroke-width="4"/>
  <path d="M0 -28 C14 -12 24 -4 28 10 C22 28 12 38 0 44 C-12 38 -22 28 -28 10 C-24 -4 -14 -12 0 -28 Z" fill="#312e81" stroke="#c4b5fd" stroke-width="2.2"/>
  <circle r="9" fill="url(#c3)" stroke="#ddd6fe" stroke-width="2"/>
  <circle cx="0" cy="52" r="5" fill="#8b5cf6"/>
  <circle cx="-18" cy="40" r="3.5" fill="#c084fc"/><circle cx="18" cy="40" r="3.5" fill="#c084fc"/>
</g>
</svg>