<svg xmlns="http://www.w3.org/2000/svg" viewBox="0 0 420 260" role="img" aria-label="Vaisseau spatial">
  
    <defs>
      <filter id="glow" x="-80%" y="-80%" width="260%" height="260%">
        <feGaussianBlur stdDeviation="4" result="blur"/>
        <feColorMatrix in="blur" type="matrix" values="0 0 0 0 0.58 0 0 0 0 0.64 0 0 0 0 0.72 0 0 0 0.9 0"/>
        <feMerge><feMergeNode/><feMergeNode in="SourceGraphic"/></feMerge>
      </filter>
      <linearGradient id="body" x1="0" x2="1" y1="0" y2="1">
        <stop offset="0%" stop-color="#374151"/>
        <stop offset="50%" stop-color="#111827"/>
        <stop offset="100%" stop-color="#94a3b8"/>
      </linearGradient>
      <linearGradient id="accent" x1="0" x2="1">
        <stop offset="0%" stop-color="#38bdf8"/>
        <stop offset="100%" stop-color="#94a3b8"/>
      </linearGradient>
      <radialGradient id="core" cx="50%" cy="50%" r="60%">
        <stop offset="0%" stop-color="#e0f2fe"/>
        <stop offset="50%" stop-color="#94a3b8"/>
        <stop offset="100%" stop-color="transparent"/>
      </radialGradient>
    </defs>
    
  <g filter="url(#glow)" opacity="0.75">
    <ellipse cx="90" cy="130" rx="26" ry="7" fill="#94a3b8"/>
    <ellipse cx="330" cy="130" rx="26" ry="7" fill="#94a3b8"/>
  </g>
  <g>
    
        <path d="M210 24 C250 88 332 92 392 128 C320 136 288 176 266 222 C242 188 230 166 210 158 C190 166 178 188 154 222 C132 176 100 136 28 128 C88 92 170 88 210 24 Z" fill="url(#body)" stroke="#94a3b8" stroke-width="3"/>
        <ellipse cx="210" cy="128" rx="42" ry="56" fill="#111827" stroke="#38bdf8" stroke-width="2"/>
        <circle cx="210" cy="116" r="16" fill="url(#core)" filter="url(#glow)"/>
        
    <g opacity=".95">
      <circle cx="210" cy="130" r="8" fill="url(#core)" filter="url(#glow)"/>
      <rect x="198" y="215" width="24" height="22" rx="10" fill="#94a3b8" opacity=".85" filter="url(#glow)"/>
      <rect x="188" y="28" width="44" height="8" rx="4" fill="#e0f2fe" opacity=".55"/>
    </g>
  </g>
</svg>