<svg xmlns="http://www.w3.org/2000/svg" viewBox="0 0 260 170">
<defs>
  <linearGradient id="g2" x1="0" x2="1"><stop offset="0" stop-color="#fb7185"/><stop offset="1" stop-color="#f97316"/></linearGradient>
  <radialGradient id="c2" cx="50%" cy="50%" r="55%"><stop offset="0" stop-color="#ffffff"/><stop offset="1" stop-color="#1f2937"/></radialGradient>
  <filter id="glow2"><feGaussianBlur stdDeviation="5" result="b"/><feMerge><feMergeNode in="b"/><feMergeNode in="SourceGraphic"/></feMerge></filter>
</defs>
<g transform="translate(130 84)" filter="url(#glow2)">
  <path d="M0 -54 L18 -20 L72 -28 L34 -4 L84 8 L26 16 L10 50 L0 24 L-10 50 L-26 16 L-84 8 L-34 -4 L-72 -28 L-18 -20 Z" fill="url(#g2)" fill-opacity="0.18" stroke="#fb7185" stroke-width="4"/>
  <path d="M0 -38 L13 -12 L40 -5 L12 3 L0 32 L-12 3 L-40 -5 L-13 -12 Z" fill="#111827" stroke="#fca5a5" stroke-width="2.4"/>
  <circle r="8" fill="url(#c2)" stroke="#fecaca" stroke-width="2"/>
  <path d="M-8 42 L-2 56 M8 42 L2 56" stroke="#ef4444" stroke-width="4" stroke-linecap="round"/>
  <circle cx="-2" cy="58" r="3.6" fill="#f87171"/><circle cx="2" cy="58" r="3.6" fill="#f97316"/>
</g>
</svg>