<svg xmlns="http://www.w3.org/2000/svg" viewBox="0 0 128 128" role="img" aria-labelledby="title desc">
  <title id="title">Coffre commun</title>
  <desc id="desc">Coffre spatial commun anime.</desc>
  <style>.glow{opacity:.16}</style>
  <defs>
    <linearGradient id="shell" x1="18" y1="24" x2="110" y2="112" gradientUnits="userSpaceOnUse"><stop stop-color="#475569"/><stop offset=".48" stop-color="#1e293b"/><stop offset="1" stop-color="#020617"/></linearGradient>
    <linearGradient id="rim" x1="16" y1="22" x2="112" y2="105" gradientUnits="userSpaceOnUse"><stop stop-color="#e2e8f0"/><stop offset=".45" stop-color="#64748b"/><stop offset="1" stop-color="#172033"/></linearGradient>
    <filter id="shadow" x="-20%" y="-20%" width="140%" height="150%"><feDropShadow dx="0" dy="8" stdDeviation="5" flood-color="#000" flood-opacity=".55"/><feDropShadow dx="0" dy="0" stdDeviation="4" flood-color="#94a3b8" flood-opacity=".28"/></filter>
  </defs>
  <ellipse cx="64" cy="108" rx="46" ry="10" fill="#020617" opacity=".55"/>
  <path class="glow" d="M31 58h66l13 50H18z" fill="#cbd5e1" opacity=".55"/>
  <g filter="url(#shadow)">
    <g class="lid">
      <path d="M24 35l15-18h50l15 18v26H24z" fill="url(#shell)" stroke="url(#rim)" stroke-width="3"/>
      <path d="M36 27h56l8 11H28z" fill="#0f172a" opacity=".72"/>
      <path d="M57 38h14v13H57z" fill="#facc15" stroke="#111827" stroke-width="3"/>
    </g>
    <path d="M20 54h88l-8 52H28z" fill="url(#shell)" stroke="url(#rim)" stroke-width="3"/>
    <path d="M29 64h70l-5 31H34z" fill="#08111f" opacity=".74"/>
    <path d="M57 59h14v20H57z" fill="#facc15" stroke="#111827" stroke-width="3"/>
    <path d="M21 73h86M30 96h68" stroke="#94a3b8" stroke-opacity=".55" stroke-width="3"/>
  </g>
  <path d="M20 36l6 2 6-2-2 6 2 6-6-2-6 2 2-6z" fill="#fff" opacity=".75"/>
</svg>
