<svg xmlns="http://www.w3.org/2000/svg" viewBox="0 0 128 128" role="img" aria-labelledby="title desc">
  <title id="title">Tir absorbant</title>
  <desc id="desc">Un noyau énergétique vert aspire deux faisceaux laser.</desc>
  <defs>
    <radialGradient id="core" cx="50%" cy="45%" r="55%">
      <stop offset="0" stop-color="#f0fdf4"/>
      <stop offset=".28" stop-color="#86efac"/>
      <stop offset=".68" stop-color="#22c55e"/>
      <stop offset="1" stop-color="#052e16"/>
    </radialGradient>
    <linearGradient id="beam" x1="0" y1="0" x2="1" y2="0">
      <stop offset="0" stop-color="#0f5132" stop-opacity=".2"/>
      <stop offset=".45" stop-color="#4ade80"/>
      <stop offset="1" stop-color="#dcfce7"/>
    </linearGradient>
    <filter id="glow" x="-50%" y="-50%" width="200%" height="200%">
      <feGaussianBlur stdDeviation="3.2" result="blur"/>
      <feMerge><feMergeNode in="blur"/><feMergeNode in="SourceGraphic"/></feMerge>
    </filter>
  </defs>
  <path d="M13 28 47 54M115 28 81 54M13 100 47 74M115 100 81 74" fill="none" stroke="#16a34a" stroke-width="11" stroke-linecap="round" opacity=".22" filter="url(#glow)"/>
  <path d="M13 28 48 55M115 28 80 55M13 100 48 73M115 100 80 73" fill="none" stroke="url(#beam)" stroke-width="5" stroke-linecap="round"/>
  <path d="m35 45 15 12-19 2M93 45 78 57l19 2M35 83l15-12-19-2M93 83 78 71l19-2" fill="none" stroke="#bbf7d0" stroke-width="4" stroke-linecap="round" stroke-linejoin="round"/>
  <circle cx="64" cy="64" r="28" fill="#052e16" stroke="#4ade80" stroke-width="3" opacity=".92"/>
  <circle cx="64" cy="64" r="19" fill="url(#core)" filter="url(#glow)"/>
  <path d="M64 47 75 64 64 81 53 64Z" fill="#dcfce7" stroke="#14532d" stroke-width="2"/>
  <circle cx="64" cy="64" r="6" fill="#ffffff"/>
</svg>
