<svg xmlns="http://www.w3.org/2000/svg" viewBox="0 0 520 220" role="img" aria-label="AvosomaNox">
  <defs>
    <linearGradient id="wing" x1="0" x2="1" y1="0" y2="1">
      <stop offset="0" stop-color="#dff6ff"/>
      <stop offset=".42" stop-color="#38bdf8"/>
      <stop offset="1" stop-color="#0f172a"/>
    </linearGradient>
    <linearGradient id="gold" x1="0" x2="1">
      <stop offset="0" stop-color="#fff7ad"/>
      <stop offset=".42" stop-color="#facc15"/>
      <stop offset="1" stop-color="#9a5b08"/>
    </linearGradient>
    <radialGradient id="core" cx="50%" cy="48%" r="58%">
      <stop offset="0" stop-color="#f8fafc"/>
      <stop offset=".28" stop-color="#7dd3fc"/>
      <stop offset=".6" stop-color="#0ea5e9"/>
      <stop offset="1" stop-color="#020617"/>
    </radialGradient>
    <filter id="glow" x="-30%" y="-30%" width="160%" height="160%">
      <feGaussianBlur stdDeviation="5" result="blur"/>
      <feMerge>
        <feMergeNode in="blur"/>
        <feMergeNode in="SourceGraphic"/>
      </feMerge>
    </filter>
  </defs>
  <path d="M28 84 188 42l46 42-114 38L52 202 84 116z" fill="url(#wing)" opacity=".9"/>
  <path d="M492 84 332 42l-46 42 114 38 68 80-32-86z" fill="url(#wing)" opacity=".9"/>
  <path d="M96 112 206 78l34 31-88 30-54 42 22-48z" fill="#061223" opacity=".82"/>
  <path d="M424 112 314 78l-34 31 88 30 54 42-22-48z" fill="#061223" opacity=".82"/>
  <path d="M260 18 346 82l-32 92-54 30-54-30-32-92z" fill="#061223" stroke="#38bdf8" stroke-width="5" filter="url(#glow)"/>
  <path d="M260 42 318 88l-22 68-36 21-36-21-22-68z" fill="#020617" stroke="#facc15" stroke-width="3"/>
  <circle cx="260" cy="112" r="43" fill="url(#core)" stroke="#dff6ff" stroke-width="4"/>
  <path d="M238 142V82h16l29 35V82h18v60h-16l-29-35v35z" fill="url(#gold)" stroke="#020617" stroke-width="2"/>
  <path d="M158 192h204" stroke="#38bdf8" stroke-width="6" stroke-linecap="round" opacity=".7"/>
  <path d="M194 206h132" stroke="#facc15" stroke-width="4" stroke-linecap="round" opacity=".92"/>
</svg>
