<svg xmlns="http://www.w3.org/2000/svg" viewBox="0 0 256 256" role="img" aria-label="Credits">
  <defs>
    <linearGradient id="rim" x1="32" y1="28" x2="224" y2="226" gradientUnits="userSpaceOnUse">
      <stop offset="0" stop-color="#e0faff"/>
      <stop offset=".42" stop-color="#0ea5e9"/>
      <stop offset="1" stop-color="#082f49"/>
    </linearGradient>
    <radialGradient id="face" cx="34%" cy="24%" r="78%">
      <stop offset="0" stop-color="#f0fdff"/>
      <stop offset=".26" stop-color="#38bdf8"/>
      <stop offset=".62" stop-color="#0369a1"/>
      <stop offset="1" stop-color="#061a2d"/>
    </radialGradient>
    <linearGradient id="block" x1="74" y1="74" x2="180" y2="182" gradientUnits="userSpaceOnUse">
      <stop offset="0" stop-color="#f8feff"/>
      <stop offset=".55" stop-color="#7dd3fc"/>
      <stop offset="1" stop-color="#075985"/>
    </linearGradient>
    <filter id="glow" x="-28%" y="-28%" width="156%" height="156%">
      <feGaussianBlur stdDeviation="3.2" result="blur"/>
      <feMerge>
        <feMergeNode in="blur"/>
        <feMergeNode in="SourceGraphic"/>
      </feMerge>
    </filter>
  </defs>
  <circle cx="128" cy="128" r="115" fill="#020617" opacity=".62"/>
  <circle cx="128" cy="128" r="109" fill="url(#rim)"/>
  <circle cx="128" cy="128" r="92" fill="url(#face)" stroke="#dff8ff" stroke-width="5"/>
  <rect x="58" y="58" width="140" height="140" rx="22" fill="#03111f" opacity=".42" stroke="#bae6fd" stroke-opacity=".42" stroke-width="4"/>
  <g filter="url(#glow)">
    <path d="M177 77H92l-18 18v66l18 18h85v-30h-62l-10-10v-22l10-10h62z" fill="url(#block)" stroke="#f8feff" stroke-width="6" stroke-linejoin="miter"/>
    <path d="M165 96h-61l-9 9v46l9 9h61" fill="none" stroke="#0f172a" stroke-width="10" stroke-linejoin="miter" opacity=".65"/>
  </g>
  <path d="M59 72c28-25 74-35 112-16" fill="none" stroke="#ecfeff" stroke-width="9" stroke-linecap="round" opacity=".55"/>
  <path d="M57 190c39 28 101 27 141-13" fill="none" stroke="#082f49" stroke-width="8" stroke-linecap="round" opacity=".45"/>
  <path d="M34 128a94 94 0 0 1 94-94" fill="none" stroke="#ecfeff" stroke-width="5" stroke-linecap="round" opacity=".25"/>
</svg>
