<svg xmlns="http://www.w3.org/2000/svg" viewBox="0 0 256 256" role="img" aria-label="Firmaton">
  <defs>
    <linearGradient id="firm-rim" x1="34" y1="24" x2="221" y2="230" gradientUnits="userSpaceOnUse">
      <stop offset="0" stop-color="#f8fdff"/>
      <stop offset=".2" stop-color="#9bd8ec"/>
      <stop offset=".52" stop-color="#3f738c"/>
      <stop offset=".76" stop-color="#d9f5ff"/>
      <stop offset="1" stop-color="#193447"/>
    </linearGradient>
    <radialGradient id="firm-face" cx="35%" cy="23%" r="80%">
      <stop offset="0" stop-color="#fff9cf"/>
      <stop offset=".27" stop-color="#facc15"/>
      <stop offset=".62" stop-color="#a85b08"/>
      <stop offset="1" stop-color="#291303"/>
    </radialGradient>
    <linearGradient id="firm-letter" x1="77" y1="66" x2="178" y2="190" gradientUnits="userSpaceOnUse">
      <stop offset="0" stop-color="#ffffff"/>
      <stop offset=".28" stop-color="#d9f5ff"/>
      <stop offset=".68" stop-color="#6eb6d1"/>
      <stop offset="1" stop-color="#28566f"/>
    </linearGradient>
    <filter id="firm-glow" x="-30%" y="-30%" width="160%" height="160%">
      <feGaussianBlur stdDeviation="3" result="blur"/>
      <feMerge><feMergeNode in="blur"/><feMergeNode in="SourceGraphic"/></feMerge>
    </filter>
  </defs>
  <circle cx="128" cy="128" r="115" fill="#06121b" opacity=".8"/>
  <circle cx="128" cy="128" r="109" fill="url(#firm-rim)"/>
  <circle cx="128" cy="128" r="92" fill="url(#firm-face)" stroke="#effcff" stroke-width="5"/>
  <circle cx="128" cy="128" r="72" fill="#07131d" opacity=".86" stroke="#dff7ff" stroke-opacity=".48" stroke-width="4"/>
  <g filter="url(#firm-glow)">
    <path d="M79 185V70h104v27h-72v22h59v27h-59v39z" fill="url(#firm-letter)" stroke="#f7fdff" stroke-width="6" stroke-linejoin="round"/>
    <path d="M97 169V88h70M98 133h55" fill="none" stroke="#16384c" stroke-width="9" stroke-linecap="square" opacity=".7"/>
  </g>
  <path d="M57 73c29-27 77-36 119-15" fill="none" stroke="#ffffff" stroke-width="9" stroke-linecap="round" opacity=".5"/>
  <path d="M54 188c40 31 108 29 149-14" fill="none" stroke="#301804" stroke-width="8" stroke-linecap="round" opacity=".44"/>
  <path d="M33 128a95 95 0 0 1 95-95" fill="none" stroke="#e8fbff" stroke-width="5" stroke-linecap="round" opacity=".32"/>
</svg>
