<svg xmlns="http://www.w3.org/2000/svg" viewBox="0 0 128 128" role="img" aria-labelledby="title desc">
  <title id="title">Firmaton</title>
  <desc id="desc">Piece brillante argent et or avec un grand F noir.</desc>
  <defs>
    <radialGradient id="coin-face" cx="31%" cy="22%" r="78%">
      <stop offset="0" stop-color="#ffffff"/>
      <stop offset=".18" stop-color="#fff5a8"/>
      <stop offset=".42" stop-color="#ffc400"/>
      <stop offset=".72" stop-color="#c46c00"/>
      <stop offset="1" stop-color="#4b2500"/>
    </radialGradient>
    <linearGradient id="coin-rim" x1="15" y1="12" x2="113" y2="116" gradientUnits="userSpaceOnUse">
      <stop offset="0" stop-color="#ffffff"/>
      <stop offset=".18" stop-color="#aebdce"/>
      <stop offset=".36" stop-color="#ffe46c"/>
      <stop offset=".55" stop-color="#b66c0b"/>
      <stop offset=".78" stop-color="#f7fbff"/>
      <stop offset="1" stop-color="#744206"/>
    </linearGradient>
    <filter id="coin-shadow" x="-20%" y="-20%" width="140%" height="140%">
      <feDropShadow dx="0" dy="4" stdDeviation="4" flood-color="#000000" flood-opacity=".55"/>
      <feDropShadow dx="0" dy="0" stdDeviation="4" flood-color="#facc15" flood-opacity=".55"/>
    </filter>
  </defs>
  <circle cx="64" cy="64" r="57" fill="url(#coin-rim)" filter="url(#coin-shadow)"/>
  <circle cx="64" cy="64" r="47" fill="url(#coin-face)" stroke="#fff9cf" stroke-width="4"/>
  <circle cx="64" cy="64" r="38" fill="#ffe46c" fill-opacity=".22" stroke="#201000" stroke-opacity=".72" stroke-width="5"/>
  <path d="M25 49c10-23 45-35 70-21 5 3 9 6 12 11" fill="none" stroke="#ffffff" stroke-width="8" stroke-linecap="round" opacity=".5"/>
  <path d="M29 87c12 16 42 23 67 7" fill="none" stroke="#2b1704" stroke-width="6" stroke-linecap="round" opacity=".28"/>
  <path d="M34 23h66v22H60v13h35v21H60v27H34z" fill="#020204" stroke="#fff9d4" stroke-width="3" stroke-linejoin="round"/>
  <path d="M42 32h45" fill="none" stroke="#ffffff" stroke-width="5" stroke-linecap="round" opacity=".32"/>
  <path d="M18 63l8 3-8 3-3 8-3-8-8-3 8-3 3-8z" fill="#ffffff"/>
  <path d="M104 20l5 2 5-2-2 5 2 5-5-2-5 2 2-5z" fill="#fff8c7"/>
  <path d="M101 93l6 2 6-2-2 6 2 6-6-2-6 2 2-6z" fill="#ffffff" opacity=".82"/>
</svg>
