<svg xmlns="http://www.w3.org/2000/svg" viewBox="0 0 96 96" role="img" aria-label="Bombe poison">
  <defs>
    <radialGradient id="toxicCore" cx="50%" cy="44%" r="58%">
      <stop offset="0" stop-color="#dcfce7"/>
      <stop offset=".34" stop-color="#86efac"/>
      <stop offset=".72" stop-color="#16a34a"/>
      <stop offset="1" stop-color="#052e16"/>
    </radialGradient>
    <linearGradient id="metal" x1="24" x2="76" y1="15" y2="82">
      <stop offset="0" stop-color="#e2e8f0"/>
      <stop offset=".42" stop-color="#64748b"/>
      <stop offset="1" stop-color="#111827"/>
    </linearGradient>
    <filter id="glow" x="-40%" y="-40%" width="180%" height="180%">
      <feGaussianBlur stdDeviation="3.5" result="blur"/>
      <feColorMatrix in="blur" type="matrix" values="0 0 0 0 0.1 0 0 0 0 0.8 0 0 0 0 0.3 0 0 0 .9 0"/>
      <feMerge>
        <feMergeNode/>
        <feMergeNode in="SourceGraphic"/>
      </feMerge>
    </filter>
  </defs>
  <rect width="96" height="96" rx="18" fill="#020617"/>
  <circle cx="48" cy="49" r="30" fill="none" stroke="#14532d" stroke-width="3" opacity=".72"/>
  <circle cx="48" cy="49" r="22" fill="none" stroke="#22c55e" stroke-width="2" opacity=".72" filter="url(#glow)"/>
  <path d="M48 12 62 31 58 58 48 84 38 58 34 31Z" fill="url(#metal)" stroke="#cbd5e1" stroke-width="2.2"/>
  <path d="M48 22 56 35 53 55 48 70 43 55 40 35Z" fill="url(#toxicCore)" filter="url(#glow)"/>
  <path d="M27 43 38 49 34 62 20 67 23 52Z" fill="#0f172a" stroke="#86efac" stroke-width="1.6"/>
  <path d="M69 43 58 49 62 62 76 67 73 52Z" fill="#0f172a" stroke="#86efac" stroke-width="1.6"/>
  <circle cx="48" cy="48" r="6" fill="#dcfce7"/>
  <circle cx="48" cy="48" r="11" fill="none" stroke="#bbf7d0" stroke-width="1.4" opacity=".8"/>
</svg>
